<?xml version="1.0" encoding="UTF-8"?>
<svg id="Layer_2" data-name="Layer 2" xmlns="http://www.w3.org/2000/svg" viewBox="0 0 212.76 77.77">
  <defs>
    <style>
      .cls-1 {
        fill: #102a43;
      }
    </style>
  </defs>
  <g id="Layer_1-2" data-name="Layer 1">
    <g id="wordoasis">
      <path class="cls-1" d="M156.48,62.3c2.12,1.4,4.44,2.44,6.29,4.63-2.46-.29-5.23.51-7.6-.1-3.09-.8-5.73-2.54-9.04-2.45,1.88.85,3.68,1.73,5.43,3.06-15.5.37-29.97,3.4-43.9,10.33,13.45-13.48,33.01-24.19,51.56-27.73,8.85-1.69,17.67-1.61,26.38.54,10.85,2.69,22.14,8.91,27.17,19.27-2.51-1.61-4.74-2.99-7.39-4l-4.17-2.31c-1.48-.82-2.77-1.79-4.37-2.35l-.27.15,4.69,4.52c-.89.08-2.24.15-3.08-.29-3.74-2.69-7.5-5.65-12.26-6.76,2.6,2.13,5.04,4.14,7.03,6.86h-3.72c-2.97-2.06-5.94-3.93-9.27-5.36l-3.26-1.12-.29.21c2.67,1.84,5.26,3.77,7.61,6.47l-5.63.09c-3.66-2.46-7.45-4.58-11.92-5.63,2.55,1.98,5.17,3.36,7.23,6.03-2.04,0-4.31.41-6.25-.07-3.39-1.91-6.74-3.72-10.67-4.22l-.3.23ZM176.51,59.12c-.06-.07-.23-.14-.41-.1-.09.02-.22.21.05.28l.36-.18ZM196.66,61.04c-.52-.46-.3.32-.45.12l.45-.12ZM156.55,62.01c-.2-.1-.41-.2-.78-.05.08.18.24.29.47.29l.32-.24Z"/>
      <path class="cls-1" d="M145.97,19.24c-2.54-.82-4.96-.61-7.6-.8,3.3-1.41,6.86-1.72,10.5-1.64l3.82-2.64c-2.91-.93-5.88-1.11-8.9-1.15,3.72-1.88,7.99-1.62,12.03-1.55.99-.14,1.99-1.04,2.81-1.64-2.71-1.09-5.31-1.22-8.16-1.86,3.17-1.01,6.45-1.11,9.77-.72,1.48.17,2.81.01,4.11-1.02l-5.52-1.19c1.89-.65,3.66-.47,5.51-.5,1.54-.02,2.99-.4,4.5-.51l5.05-.38c-8.79-4.95-19.2-4.43-28.48-.95-6.3,2.36-11.65,6.24-16.31,11.08-7.02,7.3-12.43,18.01-15.66,27.64-2.89,8.62-4.95,17.34-5.91,26.47,3.77-11.33,9.55-20.88,17.36-29.89,2.13-2.41,4.43-4.42,6.81-6.75-1.74-.09-3.25.58-4.99.95,2.08-1.78,4.76-2.17,7.12-3.28l5.03-3.82c-2.54-.65-4.64,0-7.13.14,3.13-1.91,6.68-2.76,10.28-2.97l3.95-3.01Z"/>
      <path class="cls-1" d="M175.21,37.17c-3.93-1.64-7.76-2.72-12-2.44,2.65,1.24,5.29,1.95,7.75,3.88-1.91.61-3.78,1.44-5.73,1.42l-4.78-1.08c-2.67-.6-5.33-.36-8-.06,2.79.87,5.36,1.21,7.96,2.91-2.34.57-4.49,1.9-6.83,2.03-3.23.18-6.46-.69-9.74.41,2.06.18,4.13.41,6.08,1.16-16.14,5.79-31.29,14.5-42.26,27.96,6.24-12.87,16.29-25.1,27.11-34.76,3.44-3.07,6.99-5.64,10.85-8.14,3.46-2.24,6.98-3.96,10.85-5.47,12.85-5.05,27.12-4.86,39.71.89,4.31,1.97,8.07,4.7,11.24,8.3l-5.68-1.68-5.28-1.43c-2.22-.6-4.16-1.79-6.55-2.12l6.11,3.81c-.93.21-1.99.49-2.81.12l-3.84-1.7c-2.82-1.25-5.63-2.32-8.85-2.42,2.91,1.61,5.78,3,8.24,5.34-1.02.08-2.23.69-3.23.43-4.37-1.62-9.03-3.69-13.98-3.37,3.17,1.37,6.22,2.67,9.17,4.73l-5.51,1.29Z"/>
      <path class="cls-1" d="M55.98,62.08c-3.93.5-7.28,2.31-10.67,4.22-1.94.48-4.21.07-6.25.07,2.06-2.67,4.68-4.05,7.23-6.03-4.47,1.05-8.26,3.17-11.92,5.63l-5.63-.09c2.34-2.7,4.94-4.63,7.61-6.47l-.29-.21-3.26,1.12c-3.33,1.42-6.3,3.3-9.27,5.37h-3.72c1.99-2.73,4.42-4.75,7.03-6.88-4.76,1.12-8.52,4.07-12.26,6.76-.84.45-2.18.37-3.08.29l4.69-4.52-.27-.15c-1.6.56-2.9,1.53-4.37,2.35l-4.17,2.31c-2.65,1.01-4.88,2.39-7.39,4,5.03-10.36,16.32-16.58,27.17-19.27,8.71-2.16,17.53-2.23,26.38-.54,18.54,3.54,38.11,14.26,51.56,27.73-13.93-6.93-28.4-9.96-43.9-10.33,1.74-1.33,3.54-2.21,5.43-3.06-3.31-.09-5.95,1.65-9.04,2.45-2.36.61-5.14-.19-7.6.1,1.85-2.19,4.18-3.23,6.29-4.63l-.3-.23ZM36.62,59.29c.26-.07.14-.26.05-.28-.18-.04-.35.03-.41.1l.36.18ZM16.55,61.16c-.15.19.07-.59-.45-.12l.45.12ZM56.53,62.25c.22,0,.39-.1.47-.29-.37-.15-.58-.05-.78.05l.32.24Z"/>
      <path class="cls-1" d="M66.79,19.24c2.54-.82,4.96-.61,7.6-.8-3.3-1.41-6.86-1.72-10.5-1.64l-3.82-2.64c2.91-.93,5.88-1.11,8.9-1.15-3.72-1.88-7.99-1.62-12.03-1.55-.99-.14-1.99-1.04-2.81-1.64,2.71-1.09,5.31-1.22,8.16-1.86-3.17-1.01-6.45-1.11-9.77-.72-1.48.17-2.81.01-4.11-1.02l5.52-1.19c-1.89-.65-3.66-.47-5.51-.5-1.54-.02-2.99-.4-4.5-.51l-5.05-.38c8.79-4.95,19.2-4.43,28.48-.95,6.3,2.36,11.65,6.24,16.31,11.08,7.02,7.3,12.43,18.01,15.66,27.64,2.89,8.62,4.95,17.34,5.91,26.47-3.77-11.33-9.55-20.88-17.36-29.89-2.13-2.41-4.43-4.42-6.81-6.75,1.74-.09,3.25.58,4.99.95-2.08-1.78-4.76-2.17-7.12-3.28l-5.03-3.82c2.54-.65,4.64,0,7.13.14-3.13-1.91-6.68-2.76-10.28-2.97l-3.95-3.01Z"/>
      <path class="cls-1" d="M37.55,37.17c3.93-1.64,7.76-2.72,12-2.44-2.65,1.24-5.29,1.95-7.75,3.88,1.91.61,3.78,1.44,5.73,1.42l4.78-1.08c2.67-.6,5.33-.36,8-.06-2.79.87-5.36,1.21-7.96,2.91,2.34.57,4.49,1.9,6.83,2.03,3.23.18,6.46-.69,9.74.41-2.06.18-4.13.41-6.08,1.16,16.14,5.79,31.29,14.5,42.26,27.96-6.24-12.87-16.29-25.1-27.11-34.76-3.44-3.07-6.99-5.64-10.85-8.14-3.46-2.24-6.98-3.96-10.85-5.47-12.85-5.05-27.12-4.86-39.71.89-4.31,1.97-8.07,4.7-11.24,8.3l5.68-1.68,5.28-1.43c2.22-.6,4.16-1.79,6.55-2.12l-6.11,3.81c.93.21,1.99.49,2.81.12l3.84-1.7c2.82-1.25,5.63-2.32,8.85-2.42-2.91,1.61-5.78,3-8.24,5.34,1.02.08,2.23.69,3.23.43,4.37-1.62,9.03-3.69,13.98-3.37-3.17,1.37-6.22,2.67-9.17,4.73l5.51,1.29Z"/>
    </g>
  </g>
</svg>